Linefont[dflt,mid].ufo
<glyph name="neg.-104" format="2">
	<advance width="100"/>
	<outline>
		<contour>
			<point x="-37.557" y="1.196" type="line"/>
			<point x="62.443" y="-1038.804" type="line"/>
			<point x="37.557" y="-1041.196" type="line"/>
			<point x="-62.443" y="-1.196" type="line"/>
		</contour>
	</outline>
</glyph>
<glyph name="neg.-105" format="2">
	<advance width="100"/>
	<outline>
		<contour>
			<point x="-37.556" y="1.185" type="line"/>
			<point x="62.444" y="-1048.815" type="line"/>
			<point x="37.556" y="-1051.185" type="line"/>
			<point x="-62.444" y="-1.185" type="line"/>
		</contour>
	</outline>
</glyph>
<glyph name="neg.-107" format="2">
	<advance width="100"/>
	<outline>
		<contour>
			<point x="-37.554" y="1.163" type="line"/>
			<point x="62.446" y="-1068.837" type="line"/>
			<point x="37.554" y="-1071.163" type="line"/>
			<point x="-62.446" y="-1.163" type="line"/>
		</contour>
	</outline>
</glyph>
<glyph name="neg.-108" format="2">
	<advance width="100"/>
	<outline>
		<contour>
			<point x="-37.553" y="1.152" type="line"/>
			<point x="62.447" y="-1078.848" type="line"/>
			<point x="37.553" y="-1081.152" type="line"/>
			<point x="-62.447" y="-1.152" type="line"/>
		</contour>
	</outline>
</glyph>
<glyph name="neg.-11" format="2">
	<advance width="100"/>
	<outline>
		<contour>
			<point x="-40.751" y="8.408" type="line"/>
			<point x="59.249" y="-101.592" type="line"/>
			<point x="40.751" y="-118.408" type="line"/>
			<point x="-59.249" y="-8.408" type="line"/>
		</contour>
	</outline>
</glyph>
<glyph name="neg.-112" format="2">
	<advance width="100"/>
	<outline>
		<contour>
			<point x="-37.55" y="1.112" type="line"/>
			<point x="62.45" y="-1118.888" type="line"/>
			<point x="37.55" y="-1121.112" type="line"/>
			<point x="-62.45" y="-1.112" type="line"/>
		</contour>
	</outline>
</glyph>
<glyph name="neg.-113" format="2">
	<advance width="100"/>
	<outline>
		<contour>
			<point x="-37.549" y="1.102" type="line"/>
			<point x="62.451" y="-1128.898" type="line"/>
			<point x="37.549" y="-1131.102" type="line"/>
			<point x="-62.451" y="-1.102" type="line"/>
		</contour>
	</outline>
</glyph>
<glyph name="neg.-114" format="2">
	<advance width="100"/>
	<outline>
		<contour>
			<point x="-37.548" y="1.092" type="line"/>
			<point x="62.452" y="-1138.908" type="line"/>
			<point x="37.548" y="-1141.092" type="line"/>
			<point x="-62.452" y="-1.092" type="line"/>
		</contour>
	</outline>
</glyph>
<glyph name="neg.-115" format="2">
	<advance width="100"/>
	<outline>
		<contour>
			<point x="-37.547" y="1.083" type="line"/>
			<point x="62.453" y="-1148.917" type="line"/>
			<point x="37.547" y="-1151.083" type="line"/>
			<point x="-62.453" y="-1.083" type="line"/>
		</contour>
	</outline>
</glyph>
<glyph name="neg.-118" format="2">
	<advance width="100"/>
	<outline>
		<contour>
			<point x="-37.545" y="1.056" type="line"/>
			<point x="62.455" y="-1178.944" type="line"/>
			<point x="37.545" y="-1181.056" type="line"/>
			<point x="-62.455" y="-1.056" type="line"/>
		</contour>
	</outline>
</glyph>
<glyph name="neg.-12" format="2">
	<advance width="100"/>
	<outline>
		<contour>
			<point x="-40.397" y="8.002" type="line"/>
			<point x="59.603" y="-111.998" type="line"/>
			<point x="40.397" y="-128.002" type="line"/>
			<point x="-59.603" y="-8.002" type="line"/>
		</contour>
	</outline>
</glyph>
<glyph name="neg.-120" format="2">
	<advance width="100"/>
	<outline>
		<contour>
			<point x="-37.543" y="1.038" type="line"/>
			<point x="62.457" y="-1198.962" type="line"/>
			<point x="37.543" y="-1201.038" type="line"/>
			<point x="-62.457" y="-1.038" type="line"/>
		</contour>
	</outline>
</glyph>
<glyph name="neg.-122" format="2">
	<advance width="100"/>
	<outline>
		<contour>
			<point x="-37.542" y="1.021" type="line"/>
			<point x="62.458" y="-1218.979" type="line"/>
			<point x="37.542" y="-1221.021" type="line"/>
			<point x="-62.458" y="-1.021" type="line"/>
		</contour>
	</outline>
</glyph>
<glyph name="neg.-124" format="2">
	<advance width="100"/>
	<outline>
		<contour>
			<point x="-37.54" y="1.005" type="line"/>
			<point x="62.46" y="-1238.995" type="line"/>
			<point x="37.54" y="-1241.005" type="line"/>
			<point x="-62.46" y="-1.005" type="line"/>
		</contour>
	</outline>
</glyph>
<glyph name="neg.-125" format="2">
	<advance width="100"/>
	<outline>
		<contour>
			<point x="-37.54" y="0.997" type="line"/>
			<point x="62.46" y="-1249.003" type="line"/>
			<point x="37.54" y="-1250.997" type="line"/>
			<point x="-62.46" y="-0.997" type="line"/>
		</contour>
	</outline>
</glyph>
<glyph name="neg.-126" format="2">
	<advance width="100"/>
	<outline>
		<contour>
			<point x="-37.539" y="0.989" type="line"/>
			<point x="62.461" y="-1259.011" type="line"/>
			<point x="37.539" y="-1260.989" type="line"/>
			<point x="-62.461" y="-0.989" type="line"/>
		</contour>
	</outline>
</glyph>
<glyph name="neg.-14" format="2">
	<advance width="100"/>
	<outline>
		<contour>
			<point x="-39.828" y="7.265" type="line"/>
			<point x="60.172" y="-132.735" type="line"/>
			<point x="39.828" y="-147.265" type="line"/>
			<point x="-60.172" y="-7.265" type="line"/>
		</contour>
	</outline>
</glyph>
<glyph name="neg.-18" format="2">
	<advance width="100"/>
	<outline>
		<contour>
			<point x="-39.073" y="6.071" type="line"/>
			<point x="60.927" y="-173.929" type="line"/>
			<point x="39.073" y="-186.071" type="line"/>
			<point x="-60.927" y="-6.071" type="line"/>
		</contour>
	</outline>
</glyph>
<glyph name="neg.-21" format="2">
	<advance width="100"/>
	<outline>
		<contour>
			<point x="-38.714" y="5.374" type="line"/>
			<point x="61.286" y="-204.626" type="line"/>
			<point x="38.714" y="-215.374" type="line"/>
			<point x="-61.286" y="-5.374" type="line"/>
		</contour>
	</outline>
</glyph>
<glyph name="neg.-22" format="2">
	<advance width="100"/>
	<outline>
		<contour>
			<point x="-38.62" y="5.173" type="line"/>
			<point x="61.38" y="-214.827" type="line"/>
			<point x="38.62" y="-225.173" type="line"/>
			<point x="-61.38" y="-5.173" type="line"/>
		</contour>
	</outline>
</glyph>
<glyph name="neg.-23" format="2">
	<advance width="100"/>
	<outline>
		<contour>
			<point x="-38.537" y="4.984" type="line"/>
			<point x="61.463" y="-225.016" type="line"/>
			<point x="38.537" y="-234.984" type="line"/>
			<point x="-61.463" y="-4.984" type="line"/>
		</contour>
	</outline>
</glyph>
<glyph name="neg.-26" format="2">
	<advance width="100"/>
	<outline>
		<contour>
			<point x="-38.333" y="4.487" type="line"/>
			<point x="61.667" y="-255.513" type="line"/>
			<point x="38.333" y="-264.487" type="line"/>
			<point x="-61.667" y="-4.487" type="line"/>
		</contour>
	</outline>
</glyph>
<glyph name="neg.-27" format="2">
	<advance width="100"/>
	<outline>
		<contour>
			<point x="-38.278" y="4.341" type="line"/>
			<point x="61.722" y="-265.659" type="line"/>
			<point x="38.278" y="-274.341" type="line"/>
			<point x="-61.722" y="-4.341" type="line"/>
		</contour>
	</outline>
</glyph>
<glyph name="neg.-29" format="2">
	<advance width="100"/>
	<outline>
		<contour>
			<point x="-38.183" y="4.075" type="line"/>
			<point x="61.817" y="-285.925" type="line"/>
			<point x="38.183" y="-294.075" type="line"/>
			<point x="-61.817" y="-4.075" type="line"/>
		</contour>
	</outline>
</glyph>
<glyph name="neg.-3" format="2">
	<advance width="100"/>
	<outline>
		<contour>
			<point x="-46.408" y="11.973" type="line"/>
			<point x="53.592" y="-18.027" type="line"/>
			<point x="46.408" y="-41.973" type="line"/>
			<point x="-53.592" y="-11.973" type="line"/>
		</contour>
	</outline>
</glyph>
<glyph name="neg.-31" format="2">
	<advance width="100"/>
	<outline>
		<contour>
			<point x="-38.104" y="3.838" type="line"/>
			<point x="61.896" y="-306.162" type="line"/>
			<point x="38.104" y="-313.838" type="line"/>
			<point x="-61.896" y="-3.838" type="line"/>
		</contour>
	</outline>
</glyph>
<glyph name="neg.-35" format="2">
	<advance width="100"/>
	<outline>
		<contour>
			<point x="-37.981" y="3.434" type="line"/>
			<point x="62.019" y="-346.566" type="line"/>
			<point x="37.981" y="-353.434" type="line"/>
			<point x="-62.019" y="-3.434" type="line"/>
		</contour>
	</outline>
</glyph>
<glyph name="neg.-38" format="2">
	<advance width="100"/>
	<outline>
		<contour>
			<point x="-37.912" y="3.181" type="line"/>
			<point x="62.088" y="-376.819" type="line"/>
			<point x="37.912" y="-383.181" type="line"/>
			<point x="-62.088" y="-3.181" type="line"/>
		</contour>
	</outline>
</glyph>
<glyph name="neg.-40" format="2">
	<advance width="100"/>
	<outline>
		<contour>
			<point x="-37.873" y="3.032" type="line"/>
			<point x="62.127" y="-396.968" type="line"/>
			<point x="37.873" y="-403.032" type="line"/>
			<point x="-62.127" y="-3.032" type="line"/>
		</contour>
	</outline>
</glyph>
<glyph name="neg.-43" format="2">
	<advance width="100"/>
	<outline>
		<contour>
			<point x="-37.825" y="2.831" type="line"/>
			<point x="62.175" y="-427.169" type="line"/>
			<point x="37.825" y="-432.831" type="line"/>
			<point x="-62.175" y="-2.831" type="line"/>
		</contour>
	</outline>
</glyph>
<glyph name="neg.-47" format="2">
	<advance width="100"/>
	<outline>
		<contour>
			<point x="-37.774" y="2.601" type="line"/>
			<point x="62.226" y="-467.399" type="line"/>
			<point x="37.774" y="-472.601" type="line"/>
			<point x="-62.226" y="-2.601" type="line"/>
		</contour>
	</outline>
</glyph>
<glyph name="neg.-49" format="2">
	<advance width="100"/>
	<outline>
		<contour>
			<point x="-37.752" y="2.5" type="line"/>
			<point x="62.248" y="-487.5" type="line"/>
			<point x="37.752" y="-492.5" type="line"/>
			<point x="-62.248" y="-2.5" type="line"/>
		</contour>
	</outline>
</glyph>
<glyph name="neg.-53" format="2">
	<advance width="100"/>
	<outline>
		<contour>
			<point x="-37.717" y="2.318" type="line"/>
			<point x="62.283" y="-527.682" type="line"/>
			<point x="37.717" y="-532.318" type="line"/>
			<point x="-62.283" y="-2.318" type="line"/>
		</contour>
	</outline>
</glyph>
<glyph name="neg.-56" format="2">
	<advance width="100"/>
	<outline>
		<contour>
			<point x="-37.695" y="2.197" type="line"/>
			<point x="62.305" y="-557.803" type="line"/>
			<point x="37.695" y="-562.197" type="line"/>
			<point x="-62.305" y="-2.197" type="line"/>
		</contour>
	</outline>
</glyph>
<glyph name="neg.-6" format="2">
	<advance width="100"/>
	<outline>
		<contour>
			<point x="-43.569" y="10.719" type="line"/>
			<point x="56.431" y="-49.281" type="line"/>
			<point x="43.569" y="-70.719" type="line"/>
			<point x="-56.431" y="-10.719" type="line"/>
		</contour>
	</outline>
</glyph>
<glyph name="neg.-60" format="2">
	<advance width="100"/>
	<outline>
		<contour>
			<point x="-37.67" y="2.055" type="line"/>
			<point x="62.33" y="-597.945" type="line"/>
			<point x="37.67" y="-602.055" type="line"/>
			<point x="-62.33" y="-2.055" type="line"/>
		</contour>
	</outline>
</glyph>
<glyph name="neg.-61" format="2">
	<advance width="100"/>
	<outline>
		<contour>
			<point x="-37.665" y="2.022" type="line"/>
			<point x="62.335" y="-607.978" type="line"/>
			<point x="37.665" y="-612.022" type="line"/>
			<point x="-62.335" y="-2.022" type="line"/>
		</contour>
	</outline>
</glyph>
<glyph name="neg.-63" format="2">
	<advance width="100"/>
	<outline>
		<contour>
			<point x="-37.655" y="1.96" type="line"/>
			<point x="62.345" y="-628.04" type="line"/>
			<point x="37.655" y="-631.96" type="line"/>
			<point x="-62.345" y="-1.96" type="line"/>
		</contour>
	</outline>
</glyph>
<glyph name="neg.-67" format="2">
	<advance width="100"/>
	<outline>
		<contour>
			<point x="-37.637" y="1.845" type="line"/>
			<point x="62.363" y="-668.155" type="line"/>
			<point x="37.637" y="-671.845" type="line"/>
			<point x="-62.363" y="-1.845" type="line"/>
		</contour>
	</outline>
</glyph>
<glyph name="neg.-68" format="2">
	<advance width="100"/>
	<outline>
		<contour>
			<point x="-37.633" y="1.819" type="line"/>
			<point x="62.367" y="-678.181" type="line"/>
			<point x="37.633" y="-681.819" type="line"/>
			<point x="-62.367" y="-1.819" type="line"/>
		</contour>
	</outline>
</glyph>
<glyph name="neg.-79" format="2">
	<advance width="100"/>
	<outline>
		<contour>
			<point x="-37.599" y="1.57" type="line"/>
			<point x="62.401" y="-788.43" type="line"/>
			<point x="37.599" y="-791.57" type="line"/>
			<point x="-62.401" y="-1.57" type="line"/>
		</contour>
	</outline>
</glyph>
<glyph name="neg.-8" format="2">
	<advance width="100"/>
	<outline>
		<contour>
			<point x="-42.191" y="9.761" type="line"/>
			<point x="57.809" y="-70.239" type="line"/>
			<point x="42.191" y="-89.761" type="line"/>
			<point x="-57.809" y="-9.761" type="line"/>
		</contour>
	</outline>
</glyph>
<glyph name="neg.-82" format="2">
	<advance width="100"/>
	<outline>
		<contour>
			<point x="-37.592" y="1.513" type="line"/>
			<point x="62.408" y="-818.487" type="line"/>
			<point x="37.592" y="-821.513" type="line"/>
			<point x="-62.408" y="-1.513" type="line"/>
		</contour>
	</outline>
</glyph>
<glyph name="neg.-85" format="2">
	<advance width="100"/>
	<outline>
		<contour>
			<point x="-37.586" y="1.461" type="line"/>
			<point x="62.414" y="-848.539" type="line"/>
			<point x="37.586" y="-851.461" type="line"/>
			<point x="-62.414" y="-1.461" type="line"/>
		</contour>
	</outline>
</glyph>
<glyph name="neg.-86" format="2">
	<advance width="100"/>
	<outline>
		<contour>
			<point x="-37.584" y="1.444" type="line"/>
			<point x="62.416" y="-858.556" type="line"/>
			<point x="37.584" y="-861.444" type="line"/>
			<point x="-62.416" y="-1.444" type="line"/>
		</contour>
	</outline>
</glyph>
<glyph name="neg.-87" format="2">
	<advance width="100"/>
	<outline>
		<contour>
			<point x="-37.582" y="1.427" type="line"/>
			<point x="62.418" y="-868.573" type="line"/>
			<point x="37.582" y="-871.427" type="line"/>
			<point x="-62.418" y="-1.427" type="line"/>
		</contour>
	</outline>
</glyph>
<glyph name="neg.-88" format="2">
	<advance width="100"/>
	<outline>
		<contour>
			<point x="-37.58" y="1.411" type="line"/>
			<point x="62.42" y="-878.589" type="line"/>
			<point x="37.58" y="-881.411" type="line"/>
			<point x="-62.42" y="-1.411" type="line"/>
		</contour>
	</outline>
</glyph>
<glyph name="neg.-91" format="2">
	<advance width="100"/>
	<outline>
		<contour>
			<point x="-37.575" y="1.365" type="line"/>
			<point x="62.425" y="-908.635" type="line"/>
			<point x="37.575" y="-911.365" type="line"/>
			<point x="-62.425" y="-1.365" type="line"/>
		</contour>
	</outline>
</glyph>
<glyph name="neg.-92" format="2">
	<advance width="100"/>
	<outline>
		<contour>
			<point x="-37.573" y="1.351" type="line"/>
			<point x="62.427" y="-918.649" type="line"/>
			<point x="37.573" y="-921.351" type="line"/>
			<point x="-62.427" y="-1.351" type="line"/>
		</contour>
	</outline>
</glyph>
<glyph name="neg.-94" format="2">
	<advance width="100"/>
	<outline>
		<contour>
			<point x="-37.57" y="1.322" type="line"/>
			<point x="62.43" y="-938.678" type="line"/>
			<point x="37.57" y="-941.322" type="line"/>
			<point x="-62.43" y="-1.322" type="line"/>
		</contour>
	</outline>
</glyph>
<glyph name="neg.-95" format="2">
	<advance width="100"/>
	<outline>
		<contour>
			<point x="-37.569" y="1.309" type="line"/>
			<point x="62.431" y="-948.691" type="line"/>
			<point x="37.569" y="-951.309" type="line"/>
			<point x="-62.431" y="-1.309" type="line"/>
		</contour>
	</outline>
</glyph>
<glyph name="neg.-97" format="2">
	<advance width="100"/>
	<outline>
		<contour>
			<point x="-37.566" y="1.282" type="line"/>
			<point x="62.434" y="-968.718" type="line"/>
			<point x="37.566" y="-971.282" type="line"/>
			<point x="-62.434" y="-1.282" type="line"/>
		</contour>
	</outline>
</glyph>
<glyph name="neg.-99" format="2">
	<advance width="100"/>
	<outline>
		<contour>
			<point x="-37.563" y="1.256" type="line"/>
			<point x="62.437" y="-988.744" type="line"/>
			<point x="37.563" y="-991.256" type="line"/>
			<point x="-62.437" y="-1.256" type="line"/>
		</contour>
	</outline>
</glyph>
<glyph name="point" format="2">
	<outline>
		<contour>
			<point x="-12.5" y="-6.875"/>
			<point x="-12.5" y="0" type="curve" smooth="yes"/>
			<point x="-12.5" y="6.875"/>
			<point x="-6.875" y="12.5"/>
			<point x="0" y="12.5" type="curve" smooth="yes"/>
			<point x="6.875" y="12.5"/>
			<point x="12.5" y="6.875"/>
			<point x="12.5" y="0" type="curve" smooth="yes"/>
			<point x="12.5" y="-6.875"/>
			<point x="6.875" y="-12.5"/>
			<point x="0" y="-12.5" type="curve" smooth="yes"/>
			<point x="-6.875" y="-12.5"/>
		</contour>
	</outline>
</glyph>
<glyph name="pos.1" format="2">
	<advance width="100"/>
	<outline>
		<contour>
			<point x="-51.244" y="12.438" type="line"/>
			<point x="48.756" y="22.438" type="line"/>
			<point x="51.244" y="-2.438" type="line"/>
			<point x="-48.756" y="-12.438" type="line"/>
		</contour>
	</outline>
</glyph>
<glyph name="pos.10" format="2">
	<advance width="100"/>
	<outline>
		<contour>
			<point x="-58.839" y="8.839" type="line"/>
			<point x="41.161" y="108.839" type="line"/>
			<point x="58.839" y="91.161" type="line"/>
			<point x="-41.161" y="-8.839" type="line"/>
		</contour>
	</outline>
</glyph>
<glyph name="pos.100" format="2">
	<advance width="100"/>
	<outline>
		<contour>
			<point x="-62.438" y="1.244" type="line"/>
			<point x="37.562" y="1001.244" type="line"/>
			<point x="62.438" y="998.756" type="line"/>
			<point x="-37.562" y="-1.244" type="line"/>
		</contour>
	</outline>
</glyph>
<glyph name="pos.101" format="2">
	<advance width="100"/>
	<outline>
		<contour>
			<point x="-62.439" y="1.232" type="line"/>
			<point x="37.561" y="1011.232" type="line"/>
			<point x="62.439" y="1008.768" type="line"/>
			<point x="-37.561" y="-1.232" type="line"/>
		</contour>
	</outline>
</glyph>
<glyph name="pos.102" format="2">
	<advance width="100"/>
	<outline>
		<contour>
			<point x="-62.44" y="1.22" type="line"/>
			<point x="37.56" y="1021.22" type="line"/>
			<point x="62.44" y="1018.78" type="line"/>
			<point x="-37.56" y="-1.22" type="line"/>
		</contour>
	</outline>
</glyph>
<glyph name="pos.103" format="2">
	<advance width="100"/>
	<outline>
		<contour>
			<point x="-62.442" y="1.208" type="line"/>
			<point x="37.558" y="1031.208" type="line"/>
			<point x="62.442" y="1028.792" type="line"/>
			<point x="-37.558" y="-1.208" type="line"/>
		</contour>
	</outline>
</glyph>
<glyph name="pos.106" format="2">
	<advance width="100"/>
	<outline>
		<contour>
			<point x="-62.445" y="1.174" type="line"/>
			<point x="37.555" y="1061.174" type="line"/>
			<point x="62.445" y="1058.826" type="line"/>
			<point x="-37.555" y="-1.174" type="line"/>
		</contour>
	</outline>
</glyph>
<glyph name="pos.109" format="2">
	<advance width="100"/>
	<outline>
		<contour>
			<point x="-62.448" y="1.142" type="line"/>
			<point x="37.552" y="1091.142" type="line"/>
			<point x="62.448" y="1088.858" type="line"/>
			<point x="-37.552" y="-1.142" type="line"/>
		</contour>
	</outline>
</glyph>
<glyph name="pos.110" format="2">
	<advance width="100"/>
	<outline>
		<contour>
			<point x="-62.449" y="1.132" type="line"/>
			<point x="37.551" y="1101.132" type="line"/>
			<point x="62.449" y="1098.868" type="line"/>
			<point x="-37.551" y="-1.132" type="line"/>
		</contour>
	</outline>
</glyph>
<glyph name="pos.111" format="2">
	<advance width="100"/>
	<outline>
		<contour>
			<point x="-62.45" y="1.122" type="line"/>
			<point x="37.55" y="1111.122" type="line"/>
			<point x="62.45" y="1108.878" type="line"/>
			<point x="-37.55" y="-1.122" type="line"/>
		</contour>
	</outline>
</glyph>
<glyph name="pos.116" format="2">
	<advance width="100"/>
	<outline>
		<contour>
			<point x="-62.454" y="1.074" type="line"/>
			<point x="37.546" y="1161.074" type="line"/>
			<point x="62.454" y="1158.926" type="line"/>
			<point x="-37.546" y="-1.074" type="line"/>
		</contour>
	</outline>
</glyph>
<glyph name="pos.117" format="2">
	<advance width="100"/>
	<outline>
		<contour>
			<point x="-62.455" y="1.064" type="line"/>
			<point x="37.545" y="1171.064" type="line"/>
			<point x="62.455" y="1168.936" type="line"/>
			<point x="-37.545" y="-1.064" type="line"/>
		</contour>
	</outline>
</glyph>
<glyph name="pos.119" format="2">
	<advance width="100"/>
	<outline>
		<contour>
			<point x="-62.456" y="1.047" type="line"/>
			<point x="37.544" y="1191.047" type="line"/>
			<point x="62.456" y="1188.953" type="line"/>
			<point x="-37.544" y="-1.047" type="line"/>
		</contour>
	</outline>
</glyph>
<glyph name="pos.121" format="2">
	<advance width="100"/>
	<outline>
		<contour>
			<point x="-62.458" y="1.03" type="line"/>
			<point x="37.542" y="1211.03" type="line"/>
			<point x="62.458" y="1208.97" type="line"/>
			<point x="-37.542" y="-1.03" type="line"/>
		</contour>
	</outline>
</glyph>
<glyph name="pos.123" format="2">
	<advance width="100"/>
	<outline>
		<contour>
			<point x="-62.459" y="1.013" type="line"/>
			<point x="37.541" y="1231.013" type="line"/>
			<point x="62.459" y="1228.987" type="line"/>
			<point x="-37.541" y="-1.013" type="line"/>
		</contour>
	</outline>
</glyph>
<glyph name="pos.127" format="2">
	<advance width="100"/>
	<outline>
		<contour>
			<point x="-62.461" y="0.981" type="line"/>
			<point x="37.539" y="1270.981" type="line"/>
			<point x="62.461" y="1269.019" type="line"/>
			<point x="-37.539" y="-0.981" type="line"/>
		</contour>
	</outline>
</glyph>
<glyph name="pos.13" format="2">
	<advance width="100"/>
	<outline>
		<contour>
			<point x="-59.908" y="7.621" type="line"/>
			<point x="40.092" y="137.621" type="line"/>
			<point x="59.908" y="122.379" type="line"/>
			<point x="-40.092" y="-7.621" type="line"/>
		</contour>
	</outline>
</glyph>
<glyph name="pos.15" format="2">
	<advance width="100"/>
	<outline>
		<contour>
			<point x="-60.401" y="6.934" type="line"/>
			<point x="39.599" y="156.934" type="line"/>
			<point x="60.401" y="143.066" type="line"/>
			<point x="-39.599" y="-6.934" type="line"/>
		</contour>
	</outline>
</glyph>
<glyph name="pos.16" format="2">
	<advance width="100"/>
	<outline>
		<contour>
			<point x="-60.6" y="6.625" type="line"/>
			<point x="39.4" y="166.625" type="line"/>
			<point x="60.6" y="153.375" type="line"/>
			<point x="-39.4" y="-6.625" type="line"/>
		</contour>
	</outline>
</glyph>
<glyph name="pos.17" format="2">
	<advance width="100"/>
	<outline>
		<contour>
			<point x="-60.774" y="6.338" type="line"/>
			<point x="39.226" y="176.338" type="line"/>
			<point x="60.774" y="163.662" type="line"/>
			<point x="-39.226" y="-6.338" type="line"/>
		</contour>
	</outline>
</glyph>
<glyph name="pos.19" format="2">
	<advance width="100"/>
	<outline>
		<contour>
			<point x="-61.061" y="5.822" type="line"/>
			<point x="38.939" y="195.822" type="line"/>
			<point x="61.061" y="184.178" type="line"/>
			<point x="-38.939" y="-5.822" type="line"/>
		</contour>
	</outline>
</glyph>
<glyph name="pos.2" format="2">
	<advance width="100"/>
	<outline>
		<contour>
			<point x="-52.451" y="12.257" type="line"/>
			<point x="47.549" y="32.257" type="line"/>
			<point x="52.451" y="7.743" type="line"/>
			<point x="-47.549" y="-12.257" type="line"/>
		</contour>
	</outline>
</glyph>
<glyph name="pos.20" format="2">
	<advance width="100"/>
	<outline>
		<contour>
			<point x="-61.18" y="5.59" type="line"/>
			<point x="38.82" y="205.59" type="line"/>
			<point x="61.18" y="194.41" type="line"/>
			<point x="-38.82" y="-5.59" type="line"/>
		</contour>
	</outline>
</glyph>
<glyph name="pos.24" format="2">
	<advance width="100"/>
	<outline>
		<contour>
			<point x="-61.538" y="4.808" type="line"/>
			<point x="38.462" y="244.808" type="line"/>
			<point x="61.538" y="235.192" type="line"/>
			<point x="-38.462" y="-4.808" type="line"/>
		</contour>
	</outline>
</glyph>
<glyph name="pos.25" format="2">
	<advance width="100"/>
	<outline>
		<contour>
			<point x="-61.606" y="4.642" type="line"/>
			<point x="38.394" y="254.642" type="line"/>
			<point x="61.606" y="245.358" type="line"/>
			<point x="-38.394" y="-4.642" type="line"/>
		</contour>
	</outline>
</glyph>
<glyph name="pos.28" format="2">
	<advance width="100"/>
	<outline>
		<contour>
			<point x="-61.772" y="4.204" type="line"/>
			<point x="38.228" y="284.204" type="line"/>
			<point x="61.772" y="275.796" type="line"/>
			<point x="-38.228" y="-4.204" type="line"/>
		</contour>
	</outline>
</glyph>
<glyph name="pos.30" format="2">
	<advance width="100"/>
	<outline>
		<contour>
			<point x="-61.859" y="3.953" type="line"/>
			<point x="38.141" y="303.953" type="line"/>
			<point x="61.859" y="296.047" type="line"/>
			<point x="-38.141" y="-3.953" type="line"/>
		</contour>
	</outline>
</glyph>
<glyph name="pos.32" format="2">
	<advance width="100"/>
	<outline>
		<contour>
			<point x="-61.931" y="3.728" type="line"/>
			<point x="38.069" y="323.728" type="line"/>
			<point x="61.931" y="316.272" type="line"/>
			<point x="-38.069" y="-3.728" type="line"/>
		</contour>
	</outline>
</glyph>
<glyph name="pos.33" format="2">
	<advance width="100"/>
	<outline>
		<contour>
			<point x="-61.963" y="3.625" type="line"/>
			<point x="38.037" y="333.625" type="line"/>
			<point x="61.963" y="326.375" type="line"/>
			<point x="-38.037" y="-3.625" type="line"/>
		</contour>
	</outline>
</glyph>
<glyph name="pos.34" format="2">
	<advance width="100"/>
	<outline>
		<contour>
			<point x="-61.992" y="3.527" type="line"/>
			<point x="38.008" y="343.527" type="line"/>
			<point x="61.992" y="336.473" type="line"/>
			<point x="-38.008" y="-3.527" type="line"/>
		</contour>
	</outline>
</glyph>
<glyph name="pos.36" format="2">
	<advance width="100"/>
	<outline>
		<contour>
			<point x="-62.044" y="3.346" type="line"/>
			<point x="37.956" y="363.346" type="line"/>
			<point x="62.044" y="356.654" type="line"/>
			<point x="-37.956" y="-3.346" type="line"/>
		</contour>
	</outline>
</glyph>
<glyph name="pos.37" format="2">
	<advance width="100"/>
	<outline>
		<contour>
			<point x="-62.067" y="3.261" type="line"/>
			<point x="37.933" y="373.261" type="line"/>
			<point x="62.067" y="366.739" type="line"/>
			<point x="-37.933" y="-3.261" type="line"/>
		</contour>
	</outline>
</glyph>
<glyph name="pos.39" format="2">
	<advance width="100"/>
	<outline>
		<contour>
			<point x="-62.108" y="3.105" type="line"/>
			<point x="37.892" y="393.105" type="line"/>
			<point x="62.108" y="386.895" type="line"/>
			<point x="-37.892" y="-3.105" type="line"/>
		</contour>
	</outline>
</glyph>
<glyph name="pos.4" format="2">
	<advance width="100"/>
	<outline>
		<contour>
			<point x="-54.642" y="11.606" type="line"/>
			<point x="45.358" y="51.606" type="line"/>
			<point x="54.642" y="28.394" type="line"/>
			<point x="-45.358" y="-11.606" type="line"/>
		</contour>
	</outline>
</glyph>
<glyph name="pos.41" format="2">
	<advance width="100"/>
	<outline>
		<contour>
			<point x="-62.144" y="2.962" type="line"/>
			<point x="37.856" y="412.962" type="line"/>
			<point x="62.144" y="407.038" type="line"/>
			<point x="-37.856" y="-2.962" type="line"/>
		</contour>
	</outline>
</glyph>
<glyph name="pos.42" format="2">
	<advance width="100"/>
	<outline>
		<contour>
			<point x="-62.16" y="2.895" type="line"/>
			<point x="37.84" y="422.895" type="line"/>
			<point x="62.16" y="417.105" type="line"/>
			<point x="-37.84" y="-2.895" type="line"/>
		</contour>
	</outline>
</glyph>
<glyph name="pos.44" format="2">
	<advance width="100"/>
	<outline>
		<contour>
			<point x="-62.189" y="2.77" type="line"/>
			<point x="37.811" y="442.77" type="line"/>
			<point x="62.189" y="437.23" type="line"/>
			<point x="-37.811" y="-2.77" type="line"/>
		</contour>
	</outline>
</glyph>
<glyph name="pos.45" format="2">
	<advance width="100"/>
	<outline>
		<contour>
			<point x="-62.202" y="2.712" type="line"/>
			<point x="37.798" y="452.712" type="line"/>
			<point x="62.202" y="447.288" type="line"/>
			<point x="-37.798" y="-2.712" type="line"/>
		</contour>
	</outline>
</glyph>
<glyph name="pos.46" format="2">
	<advance width="100"/>
	<outline>
		<contour>
			<point x="-62.215" y="2.655" type="line"/>
			<point x="37.785" y="462.655" type="line"/>
			<point x="62.215" y="457.345" type="line"/>
			<point x="-37.785" y="-2.655" type="line"/>
		</contour>
	</outline>
</glyph>
<glyph name="pos.48" format="2">
	<advance width="100"/>
	<outline>
		<contour>
			<point x="-62.237" y="2.549" type="line"/>
			<point x="37.763" y="482.549" type="line"/>
			<point x="62.237" y="477.451" type="line"/>
			<point x="-37.763" y="-2.549" type="line"/>
		</contour>
	</outline>
</glyph>
<glyph name="pos.5" format="2">
	<advance width="100"/>
	<outline>
		<contour>
			<point x="-55.59" y="11.18" type="line"/>
			<point x="44.41" y="61.18" type="line"/>
			<point x="55.59" y="38.82" type="line"/>
			<point x="-44.41" y="-11.18" type="line"/>
		</contour>
	</outline>
</glyph>
<glyph name="pos.50" format="2">
	<advance width="100"/>
	<outline>
		<contour>
			<point x="-62.257" y="2.451" type="line"/>
			<point x="37.743" y="502.451" type="line"/>
			<point x="62.257" y="497.549" type="line"/>
			<point x="-37.743" y="-2.451" type="line"/>
		</contour>
	</outline>
</glyph>
<glyph name="pos.51" format="2">
	<advance width="100"/>
	<outline>
		<contour>
			<point x="-62.266" y="2.405" type="line"/>
			<point x="37.734" y="512.405" type="line"/>
			<point x="62.266" y="507.595" type="line"/>
			<point x="-37.734" y="-2.405" type="line"/>
		</contour>
	</outline>
</glyph>
<glyph name="pos.52" format="2">
	<advance width="100"/>
	<outline>
		<contour>
			<point x="-62.275" y="2.361" type="line"/>
			<point x="37.725" y="522.361" type="line"/>
			<point x="62.275" y="517.639" type="line"/>
			<point x="-37.725" y="-2.361" type="line"/>
		</contour>
	</outline>
</glyph>
<glyph name="pos.54" format="2">
	<advance width="100"/>
	<outline>
		<contour>
			<point x="-62.291" y="2.276" type="line"/>
			<point x="37.709" y="542.276" type="line"/>
			<point x="62.291" y="537.724" type="line"/>
			<point x="-37.709" y="-2.276" type="line"/>
		</contour>
	</outline>
</glyph>
<glyph name="pos.55" format="2">
	<advance width="100"/>
	<outline>
		<contour>
			<point x="-62.298" y="2.236" type="line"/>
			<point x="37.702" y="552.236" type="line"/>
			<point x="62.298" y="547.764" type="line"/>
			<point x="-37.702" y="-2.236" type="line"/>
		</contour>
	</outline>
</glyph>
<glyph name="pos.57" format="2">
	<advance width="100"/>
	<outline>
		<contour>
			<point x="-62.312" y="2.16" type="line"/>
			<point x="37.688" y="572.16" type="line"/>
			<point x="62.312" y="567.84" type="line"/>
			<point x="-37.688" y="-2.16" type="line"/>
		</contour>
	</outline>
</glyph>
<glyph name="pos.58" format="2">
	<advance width="100"/>
	<outline>
		<contour>
			<point x="-62.318" y="2.124" type="line"/>
			<point x="37.682" y="582.124" type="line"/>
			<point x="62.318" y="577.876" type="line"/>
			<point x="-37.682" y="-2.124" type="line"/>
		</contour>
	</outline>
</glyph>
<glyph name="pos.59" format="2">
	<advance width="100"/>
	<outline>
		<contour>
			<point x="-62.324" y="2.089" type="line"/>
			<point x="37.676" y="592.089" type="line"/>
			<point x="62.324" y="587.911" type="line"/>
			<point x="-37.676" y="-2.089" type="line"/>
		</contour>
	</outline>
</glyph>
<glyph name="pos.60" format="2">
	<advance width="100"/>
	<outline>
		<contour>
			<point x="-62.33" y="2.055" type="line"/>
			<point x="37.67" y="602.055" type="line"/>
			<point x="62.33" y="597.945" type="line"/>
			<point x="-37.67" y="-2.055" type="line"/>
		</contour>
	</outline>
</glyph>
<glyph name="pos.62" format="2">
	<advance width="100"/>
	<outline>
		<contour>
			<point x="-62.341" y="1.99" type="line"/>
			<point x="37.659" y="621.99" type="line"/>
			<point x="62.341" y="618.01" type="line"/>
			<point x="-37.659" y="-1.99" type="line"/>
		</contour>
	</outline>
</glyph>
<glyph name="pos.64" format="2">
	<advance width="100"/>
	<outline>
		<contour>
			<point x="-62.35" y="1.93" type="line"/>
			<point x="37.65" y="641.93" type="line"/>
			<point x="62.35" y="638.07" type="line"/>
			<point x="-37.65" y="-1.93" type="line"/>
		</contour>
	</outline>
</glyph>
<glyph name="pos.65" format="2">
	<advance width="100"/>
	<outline>
		<contour>
			<point x="-62.355" y="1.901" type="line"/>
			<point x="37.645" y="651.901" type="line"/>
			<point x="62.355" y="648.099" type="line"/>
			<point x="-37.645" y="-1.901" type="line"/>
		</contour>
	</outline>
</glyph>
<glyph name="pos.66" format="2">
	<advance width="100"/>
	<outline>
		<contour>
			<point x="-62.359" y="1.873" type="line"/>
			<point x="37.641" y="661.873" type="line"/>
			<point x="62.359" y="658.127" type="line"/>
			<point x="-37.641" y="-1.873" type="line"/>
		</contour>
	</outline>
</glyph>
<glyph name="pos.69" format="2">
	<advance width="100"/>
	<outline>
		<contour>
			<point x="-62.371" y="1.793" type="line"/>
			<point x="37.629" y="691.793" type="line"/>
			<point x="62.371" y="688.207" type="line"/>
			<point x="-37.629" y="-1.793" type="line"/>
		</contour>
	</outline>
</glyph>
<glyph name="pos.7" format="2">
	<advance width="100"/>
	<outline>
		<contour>
			<point x="-57.168" y="10.24" type="line"/>
			<point x="42.832" y="80.24" type="line"/>
			<point x="57.168" y="59.76" type="line"/>
			<point x="-42.832" y="-10.24" type="line"/>
		</contour>
	</outline>
</glyph>
<glyph name="pos.70" format="2">
	<advance width="100"/>
	<outline>
		<contour>
			<point x="-62.374" y="1.768" type="line"/>
			<point x="37.626" y="701.768" type="line"/>
			<point x="62.374" y="698.232" type="line"/>
			<point x="-37.626" y="-1.768" type="line"/>
		</contour>
	</outline>
</glyph>
<glyph name="pos.71" format="2">
	<advance width="100"/>
	<outline>
		<contour>
			<point x="-62.378" y="1.743" type="line"/>
			<point x="37.622" y="711.743" type="line"/>
			<point x="62.378" y="708.257" type="line"/>
			<point x="-37.622" y="-1.743" type="line"/>
		</contour>
	</outline>
</glyph>
<glyph name="pos.72" format="2">
	<advance width="100"/>
	<outline>
		<contour>
			<point x="-62.381" y="1.72" type="line"/>
			<point x="37.619" y="721.72" type="line"/>
			<point x="62.381" y="718.28" type="line"/>
			<point x="-37.619" y="-1.72" type="line"/>
		</contour>
	</outline>
</glyph>
<glyph name="pos.73" format="2">
	<advance width="100"/>
	<outline>
		<contour>
			<point x="-62.384" y="1.696" type="line"/>
			<point x="37.616" y="731.696" type="line"/>
			<point x="62.384" y="728.304" type="line"/>
			<point x="-37.616" y="-1.696" type="line"/>
		</contour>
	</outline>
</glyph>
<glyph name="pos.74" format="2">
	<advance width="100"/>
	<outline>
		<contour>
			<point x="-62.387" y="1.674" type="line"/>
			<point x="37.613" y="741.674" type="line"/>
			<point x="62.387" y="738.326" type="line"/>
			<point x="-37.613" y="-1.674" type="line"/>
		</contour>
	</outline>
</glyph>
<glyph name="pos.75" format="2">
	<advance width="100"/>
	<outline>
		<contour>
			<point x="-62.39" y="1.652" type="line"/>
			<point x="37.61" y="751.652" type="line"/>
			<point x="62.39" y="748.348" type="line"/>
			<point x="-37.61" y="-1.652" type="line"/>
		</contour>
	</outline>
</glyph>
<glyph name="pos.76" format="2">
	<advance width="100"/>
	<outline>
		<contour>
			<point x="-62.393" y="1.631" type="line"/>
			<point x="37.607" y="761.631" type="line"/>
			<point x="62.393" y="758.369" type="line"/>
			<point x="-37.607" y="-1.631" type="line"/>
		</contour>
	</outline>
</glyph>
<glyph name="pos.77" format="2">
	<advance width="100"/>
	<outline>
		<contour>
			<point x="-62.396" y="1.61" type="line"/>
			<point x="37.604" y="771.61" type="line"/>
			<point x="62.396" y="768.39" type="line"/>
			<point x="-37.604" y="-1.61" type="line"/>
		</contour>
	</outline>
</glyph>
<glyph name="pos.78" format="2">
	<advance width="100"/>
	<outline>
		<contour>
			<point x="-62.399" y="1.59" type="line"/>
			<point x="37.601" y="781.59" type="line"/>
			<point x="62.399" y="778.41" type="line"/>
			<point x="-37.601" y="-1.59" type="line"/>
		</contour>
	</outline>
</glyph>
<glyph name="pos.80" format="2">
	<advance width="100"/>
	<outline>
		<contour>
			<point x="-62.403" y="1.55" type="line"/>
			<point x="37.597" y="801.55" type="line"/>
			<point x="62.403" y="798.45" type="line"/>
			<point x="-37.597" y="-1.55" type="line"/>
		</contour>
	</outline>
</glyph>
<glyph name="pos.81" format="2">
	<advance width="100"/>
	<outline>
		<contour>
			<point x="-62.406" y="1.532" type="line"/>
			<point x="37.594" y="811.532" type="line"/>
			<point x="62.406" y="808.468" type="line"/>
			<point x="-37.594" y="-1.532" type="line"/>
		</contour>
	</outline>
</glyph>
<glyph name="pos.83" format="2">
	<advance width="100"/>
	<outline>
		<contour>
			<point x="-62.41" y="1.495" type="line"/>
			<point x="37.59" y="831.495" type="line"/>
			<point x="62.41" y="828.505" type="line"/>
			<point x="-37.59" y="-1.495" type="line"/>
		</contour>
	</outline>
</glyph>
<glyph name="pos.84" format="2">
	<advance width="100"/>
	<outline>
		<contour>
			<point x="-62.412" y="1.478" type="line"/>
			<point x="37.588" y="841.478" type="line"/>
			<point x="62.412" y="838.522" type="line"/>
			<point x="-37.588" y="-1.478" type="line"/>
		</contour>
	</outline>
</glyph>
<glyph name="pos.89" format="2">
	<advance width="100"/>
	<outline>
		<contour>
			<point x="-62.422" y="1.396" type="line"/>
			<point x="37.578" y="891.396" type="line"/>
			<point x="62.422" y="888.604" type="line"/>
			<point x="-37.578" y="-1.396" type="line"/>
		</contour>
	</outline>
</glyph>
<glyph name="pos.9" format="2">
	<advance width="100"/>
	<outline>
		<contour>
			<point x="-58.362" y="9.291" type="line"/>
			<point x="41.638" y="99.291" type="line"/>
			<point x="58.362" y="80.709" type="line"/>
			<point x="-41.638" y="-9.291" type="line"/>
		</contour>
	</outline>
</glyph>
<glyph name="pos.90" format="2">
	<advance width="100"/>
	<outline>
		<contour>
			<point x="-62.424" y="1.38" type="line"/>
			<point x="37.576" y="901.38" type="line"/>
			<point x="62.424" y="898.62" type="line"/>
			<point x="-37.576" y="-1.38" type="line"/>
		</contour>
	</outline>
</glyph>
<glyph name="pos.93" format="2">
	<advance width="100"/>
	<outline>
		<contour>
			<point x="-62.428" y="1.336" type="line"/>
			<point x="37.572" y="931.336" type="line"/>
			<point x="62.428" y="928.664" type="line"/>
			<point x="-37.572" y="-1.336" type="line"/>
		</contour>
	</outline>
</glyph>
<glyph name="pos.96" format="2">
	<advance width="100"/>
	<outline>
		<contour>
			<point x="-62.433" y="1.295" type="line"/>
			<point x="37.567" y="961.295" type="line"/>
			<point x="62.433" y="958.705" type="line"/>
			<point x="-37.567" y="-1.295" type="line"/>
		</contour>
	</outline>
</glyph>
<glyph name="pos.98" format="2">
	<advance width="100"/>
	<outline>
		<contour>
			<point x="-62.435" y="1.269" type="line"/>
			<point x="37.565" y="981.269" type="line"/>
			<point x="62.435" y="978.731" type="line"/>
			<point x="-37.565" y="-1.269" type="line"/>
		</contour>
	</outline>
</glyph>
